<?xml version="1.0" standalone="no"?><svg width="180px" height="40px" xmlns="http://www.w3.org/2000/svg" viewBox="0 0 1440 320"><path fill="#954e81" fill-opacity="1" d="M0,32L11.4,74.7C22.9,117,46,203,69,240C91.4,277,114,267,137,245.3C160,224,183,192,206,170.7C228.6,149,251,139,274,149.3C297.1,160,320,192,343,218.7C365.7,245,389,267,411,256C434.3,245,457,203,480,192C502.9,181,526,203,549,197.3C571.4,192,594,160,617,160C640,160,663,192,686,224C708.6,256,731,288,754,293.3C777.1,299,800,277,823,240C845.7,203,869,149,891,122.7C914.3,96,937,96,960,90.7C982.9,85,1006,75,1029,96C1051.4,117,1074,171,1097,197.3C1120,224,1143,224,1166,186.7C1188.6,149,1211,75,1234,58.7C1257.1,43,1280,85,1303,96C1325.7,107,1349,85,1371,96C1394.3,107,1417,149,1429,170.7L1440,192L1440,0L1428.6,0C1417.1,0,1394,0,1371,0C1348.6,0,1326,0,1303,0C1280,0,1257,0,1234,0C1211.4,0,1189,0,1166,0C1142.9,0,1120,0,1097,0C1074.3,0,1051,0,1029,0C1005.7,0,983,0,960,0C937.1,0,914,0,891,0C868.6,0,846,0,823,0C800,0,777,0,754,0C731.4,0,709,0,686,0C662.9,0,640,0,617,0C594.3,0,571,0,549,0C525.7,0,503,0,480,0C457.1,0,434,0,411,0C388.6,0,366,0,343,0C320,0,297,0,274,0C251.4,0,229,0,206,0C182.9,0,160,0,137,0C114.3,0,91,0,69,0C45.7,0,23,0,11,0L0,0Z"></path></svg>